<?xml version="1.0" standalone="no"?><!DOCTYPE svg PUBLIC "-//W3C//DTD SVG 1.1//EN" "http://www.w3.org/Graphics/SVG/1.1/DTD/svg11.dtd"><svg t="1696687474846" class="icon" viewBox="0 0 1024 1024" version="1.1" xmlns="http://www.w3.org/2000/svg" p-id="4056" xmlns:xlink="http://www.w3.org/1999/xlink" width="200" height="200"><path d="M640 384c0-70.4-57.6-128-128-128s-128 57.6-128 128 57.6 128 128 128 128-57.6 128-128zM448 384c0-38.4 25.6-64 64-64s64 25.6 64 64-25.6 64-64 64-64-25.6-64-64z m454.4 544l-192-217.6c108.8-64 185.6-185.6 185.6-326.4 0-211.2-172.8-384-384-384S128 172.8 128 384c0 140.8 76.8 262.4 185.6 326.4l-192 217.6c-25.6 44.8 6.4 96 57.6 96h672c44.8 0 76.8-51.2 51.2-96zM192 384c0-179.2 140.8-320 320-320s320 140.8 320 320-140.8 320-320 320-320-140.8-320-320z m-12.8 576l172.8-192h326.4l172.8 192H179.2z" fill="" p-id="4057"></path></svg>