<?xml version="1.0" standalone="no"?><!DOCTYPE svg PUBLIC "-//W3C//DTD SVG 1.1//EN" "http://www.w3.org/Graphics/SVG/1.1/DTD/svg11.dtd"><svg t="1695781678004" class="icon" viewBox="0 0 1026 1024" version="1.1" xmlns="http://www.w3.org/2000/svg" p-id="6088" xmlns:xlink="http://www.w3.org/1999/xlink" width="200.390625" height="200"><path d="M513.066667 640c-72.533333 0-128-55.466667-128-128s55.466667-128 128-128 128 55.466667 128 128-55.466667 128-128 128z m0-170.666667c-25.6 0-42.666667 17.066667-42.666667 42.666667s17.066667 42.666667 42.666667 42.666667 42.666667-17.066667 42.666666-42.666667-17.066667-42.666667-42.666666-42.666667zM316.8 750.933333c-12.8 0-21.333333-4.266667-29.866667-12.8-123.733333-123.733333-123.733333-328.533333 0-452.266666 17.066667-17.066667 42.666667-17.066667 59.733334 0s17.066667 42.666667 0 59.733333c-89.6 89.6-89.6 238.933333 0 332.8 17.066667 17.066667 17.066667 42.666667 0 59.733333-8.533333 8.533333-17.066667 12.8-29.866667 12.8zM709.333333 750.933333c-12.8 0-21.333333-4.266667-29.866666-12.8-17.066667-17.066667-17.066667-42.666667 0-59.733333 89.6-89.6 89.6-238.933333 0-332.8-17.066667-17.066667-17.066667-42.666667 0-59.733333s42.666667-17.066667 59.733333 0c123.733333 123.733333 123.733333 328.533333 0 452.266666-8.533333 8.533333-17.066667 12.8-29.866667 12.8z" p-id="6089"></path><path d="M180.266667 887.466667c-12.8 0-21.333333-4.266667-29.866667-12.8-200.533333-200.533333-200.533333-524.8 0-725.333334 17.066667-17.066667 42.666667-17.066667 59.733333 0s17.066667 42.666667 0 59.733334C43.733333 375.466667 43.733333 648.533333 210.133333 814.933333c17.066667 17.066667 17.066667 42.666667 0 59.733334-8.533333 8.533333-17.066667 12.8-29.866666 12.8zM845.866667 887.466667c-12.8 0-21.333333-4.266667-29.866667-12.8-17.066667-17.066667-17.066667-42.666667 0-59.733334C982.4 648.533333 982.4 379.733333 816 213.333333c-17.066667-17.066667-17.066667-42.666667 0-59.733333s42.666667-17.066667 59.733333 0c200.533333 200.533333 200.533333 524.8 0 725.333333-8.533333 4.266667-21.333333 8.533333-29.866666 8.533334z" p-id="6090"></path></svg>