<?xml version="1.0" standalone="no"?><!DOCTYPE svg PUBLIC "-//W3C//DTD SVG 1.1//EN" "http://www.w3.org/Graphics/SVG/1.1/DTD/svg11.dtd"><svg t="1695781805711" class="icon" viewBox="0 0 1024 1024" version="1.1" xmlns="http://www.w3.org/2000/svg" p-id="10244" xmlns:xlink="http://www.w3.org/1999/xlink" width="200" height="200"><path d="M475.428571 877.714286C256 877.714286 73.142857 694.857143 73.142857 475.428571S256 73.142857 475.428571 73.142857 877.714286 256 877.714286 475.428571 694.857143 877.714286 475.428571 877.714286m0-877.714286C212.114286 0 0 212.114286 0 475.428571S212.114286 950.857143 475.428571 950.857143 950.857143 738.742857 950.857143 475.428571 738.742857 0 475.428571 0m0 219.428571c-21.942857 0-36.571429 14.628571-36.571428 36.571429v292.571429c0 21.942857 14.628571 36.571429 36.571428 36.571428s36.571429-14.628571 36.571429-36.571428v-292.571429c0-21.942857-14.628571-36.571429-36.571429-36.571429m0 438.857143c-21.942857 0-36.571429 14.628571-36.571428 36.571429s14.628571 36.571429 36.571428 36.571428 36.571429-14.628571 36.571429-36.571428-14.628571-36.571429-36.571429-36.571429" p-id="10245"></path></svg>